<svg id="Expand" height="512" viewBox="0 0 16 16" width="512" xmlns="http://www.w3.org/2000/svg"><path d="m13 .5h-10a2.5026 2.5026 0 0 0 -2.5 2.5v10a2.5026 2.5026 0 0 0 2.5 2.5h10a2.5026 2.5026 0 0 0 2.5-2.5v-10a2.5026 2.5026 0 0 0 -2.5-2.5zm1.5 12.5a1.5017 1.5017 0 0 1 -1.5 1.5h-10a1.5017 1.5017 0 0 1 -1.5-1.5v-10a1.5017 1.5017 0 0 1 1.5-1.5h10a1.5017 1.5017 0 0 1 1.5 1.5z"/><path d="m11.6465 5.6465-2.293 2.2935a.5.5 0 0 1 -.707 0l-.586-.586a1.5012 1.5012 0 0 0 -2.121 0l-2.293 2.293a.5.5 0 1 0 .707.707l2.293-2.294a.5.5 0 0 1 .707 0l.586.586a1.5012 1.5012 0 0 0 2.121 0l2.293-2.293a.5.5 0 0 0 -.707-.707z"/></svg>