<?xml version="1.0" encoding="UTF-8"?>
<svg xmlns="http://www.w3.org/2000/svg" id="Expand" viewBox="0 0 16 16" width="512" height="512"><path d="M1.5,13A2.5026,2.5026,0,0,0,4,15.5h8A2.5026,2.5026,0,0,0,14.5,13V5.8281a2.4844,2.4844,0,0,0-.7324-1.7676L10.94,1.2324A2.4825,2.4825,0,0,0,9.1714.5H4A2.5026,2.5026,0,0,0,1.5,3ZM13.0605,4.7676A1.5084,1.5084,0,0,1,13.46,5.5H10.6665A1.1681,1.1681,0,0,1,9.5,4.333V1.5391a1.4893,1.4893,0,0,1,.7324.4ZM2.5,3A1.5017,1.5017,0,0,1,4,1.5H8.5V4.333A2.1688,2.1688,0,0,0,10.6665,6.5H13.5V13A1.5017,1.5017,0,0,1,12,14.5H4A1.5017,1.5017,0,0,1,2.5,13Z"/><path d="M5,7.5H7a.5.5,0,0,0,0-1H5a.5.5,0,0,0,0,1Z"/><path d="M5,10h6a.5.5,0,0,0,0-1H5a.5.5,0,0,0,0,1Z"/><path d="M5,12.5h6a.5.5,0,0,0,0-1H5a.5.5,0,0,0,0,1Z"/></svg>
