<svg id="Expand" height="512" viewBox="0 0 16 16" width="512" xmlns="http://www.w3.org/2000/svg"><path d="m14.46 4.6748-5-3.6919a2.4451 2.4451 0 0 0 -2.919 0l-5 3.6919a2.5972 2.5972 0 0 0 -1.041 2.0852v6.1728a2.5374 2.5374 0 0 0 2.5 2.5672h10a2.5374 2.5374 0 0 0 2.5-2.5674v-6.1726a2.5962 2.5962 0 0 0 -1.04-2.0852zm.04 8.2578a1.5365 1.5365 0 0 1 -1.5 1.5674h-10a1.5365 1.5365 0 0 1 -1.5-1.5674v-6.1726a1.5929 1.5929 0 0 1 .6343-1.28l5-3.6919a1.4487 1.4487 0 0 1 1.7314 0l5 3.6919a1.5929 1.5929 0 0 1 .6343 1.28z"/><path d="m10.7 10.6a4.501 4.501 0 0 1 -5.4 0 .5.5 0 0 0 -.6.8 5.499 5.499 0 0 0 6.6 0 .5.5 0 0 0 -.6-.8z"/></svg>