<svg id="Expand" height="512" viewBox="0 0 16 16" width="512" xmlns="http://www.w3.org/2000/svg"><path d="m8 .75a5.5066 5.5066 0 0 0 -5.5 5.5v2.6973a.5.5 0 0 1 -.084.2773l-.796 1.1939a1.5 1.5 0 0 0 1.2482 2.3315h2.1823a2.99 2.99 0 0 0 5.899 0h2.1823a1.5 1.5 0 0 0 1.2482-2.332l-.796-1.1934a.5.5 0 0 1 -.084-.2773v-2.6973a5.5066 5.5066 0 0 0 -5.5-5.5zm0 13.5a2.0028 2.0028 0 0 1 -1.9365-1.5h3.873a2.0028 2.0028 0 0 1 -1.9365 1.5zm5.5479-3.2778a.5.5 0 0 1 -.4161.7778h-10.2636a.5.5 0 0 1 -.4161-.7773l.7959-1.1934a1.4934 1.4934 0 0 0 .252-.832v-2.6973a4.5 4.5 0 0 1 9 0v2.6973a1.4934 1.4934 0 0 0 .252.832z"/></svg>